<?xml version="1.0" encoding="UTF-8"?>
<svg width="123px" height="128px" viewBox="0 0 123 128" version="1.1" xmlns="http://www.w3.org/2000/svg" xmlns:xlink="http://www.w3.org/1999/xlink">
    <g id="Page-1" stroke="none" stroke-width="1" fill="none" fill-rule="evenodd">
        <path d="M56.0083679,65.4545019 L24.9083679,22.3032519 L24.9083679,43.7597684 C33.0468973,46.1043067 39,53.6069425 39,62.5 C39,73.2695526 30.2695526,82 19.5,82 C8.73044738,82 0,73.2695526 0,62.5 C0,53.6372982 5.91253117,46.1555421 14.0083679,43.7839572 L14.0083679,5.60325192 C13.9083679,3.90325192 14.7083679,2.10325192 16.2083679,1.00325192 C18.7083679,-0.696748084 22.1083679,-0.196748084 23.8083679,2.20325192 L56.1083679,46.9032519 L56.1083679,5.70325192 C56.1083679,2.80325192 58.5083679,0.303251916 61.5083679,0.303251916 C64.5083679,0.303251916 67.0083679,2.80325192 67.0083679,5.70325192 L67.0083679,61.863933 L98.1083679,104.903252 L98.1083679,81.2450447 C89.9612652,78.9059763 84,71.3991522 84,62.5 C84,51.7304474 92.7304474,43 103.5,43 C114.269553,43 123,51.7304474 123,62.5 C123,71.3565936 117.095616,78.8341443 109.008368,81.211132 L109.008368,121.803252 C109.008368,124.803252 106.508368,127.303252 103.508368,127.303252 C101.908368,127.303252 100.408368,126.503252 99.4083679,125.303252 C99.2083679,125.103252 99.0083679,124.903252 98.9083679,124.703252 L66.9083679,80.3032519 L66.9083679,121.803252 C66.9083679,124.803252 64.4083679,127.303252 61.5083679,127.303252 C58.4083679,127.303252 56.0083679,124.803252 56.0083679,121.803252 L56.0083679,65.4545019 Z" id="Path" fill="#2F2929"></path>
    </g>
</svg>