<?xml version="1.0" encoding="UTF-8"?>
<svg width="190px" height="190px" viewBox="0 0 190 190" version="1.1" xmlns="http://www.w3.org/2000/svg" xmlns:xlink="http://www.w3.org/1999/xlink">
    <g id="Page-1" stroke="none" stroke-width="1" fill="none" fill-rule="evenodd">
        <g id="Group-3">
            <rect id="Rectangle" fill="#EA4CDF" x="0" y="0" width="190" height="190" rx="8"></rect>
            <path d="M90.0083679,96.4545019 L58.9083679,53.3032519 L58.9083679,74.7597684 C67.0468973,77.1043067 73,84.6069425 73,93.5 C73,104.269553 64.2695526,113 53.5,113 C42.7304474,113 34,104.269553 34,93.5 C34,84.6372982 39.9125312,77.1555421 48.0083679,74.7839572 L48.0083679,36.6032519 C47.9083679,34.9032519 48.7083679,33.1032519 50.2083679,32.0032519 C52.7083679,30.3032519 56.1083679,30.8032519 57.8083679,33.2032519 L90.1083679,77.9032519 L90.1083679,36.7032519 C90.1083679,33.8032519 92.5083679,31.3032519 95.5083679,31.3032519 C98.5083679,31.3032519 101.008368,33.8032519 101.008368,36.7032519 L101.008368,92.863933 L132.108368,135.903252 L132.108368,112.245045 C123.961265,109.905976 118,102.399152 118,93.5 C118,82.7304474 126.730447,74 137.5,74 C148.269553,74 157,82.7304474 157,93.5 C157,102.356594 151.095616,109.834144 143.008368,112.211132 L143.008368,152.803252 C143.008368,155.803252 140.508368,158.303252 137.508368,158.303252 C135.908368,158.303252 134.408368,157.503252 133.408368,156.303252 C133.208368,156.103252 133.008368,155.903252 132.908368,155.703252 L100.908368,111.303252 L100.908368,152.803252 C100.908368,155.803252 98.4083679,158.303252 95.5083679,158.303252 C92.4083679,158.303252 90.0083679,155.803252 90.0083679,152.803252 L90.0083679,96.4545019 Z" id="Path-Copy-2" fill="#FFFFFF"></path>
            <path d="M53.68,79.2 C57.36,79.2 60.88,80.84 63.24,83.48 C65.72,86.12 67.28,89.64 67.28,93.6 C67.28,97.56 65.72,101.12 63.24,103.72 C60.88,106.32 57.36,108 53.68,108 C49.84,108 46.32,106.32 43.88,103.72 C41.4,101.12 39.92,97.56 39.92,93.6 C39.92,89.64 41.4,86.12 43.88,83.48 C46.32,80.84 49.84,79.2 53.68,79.2 Z M60,100.56 C61.64,98.84 62.72,96.32 62.72,93.6 C62.72,90.88 61.64,88.36 60,86.6 C58.32,84.8 56.08,83.76 53.68,83.76 C51.12,83.76 48.88,84.8 47.2,86.6 C45.52,88.36 44.48,90.88 44.48,93.6 C44.48,96.32 45.52,98.84 47.2,100.56 C48.88,102.36 51.12,103.44 53.68,103.44 C56.08,103.44 58.32,102.36 60,100.56 Z" id="O" fill="#FB71F1"></path>
            <path d="M137.68,79.2 C141.36,79.2 144.88,80.84 147.24,83.48 C149.72,86.12 151.28,89.64 151.28,93.6 C151.28,97.56 149.72,101.12 147.24,103.72 C144.88,106.32 141.36,108 137.68,108 C133.84,108 130.32,106.32 127.88,103.72 C125.4,101.12 123.92,97.56 123.92,93.6 C123.92,89.64 125.4,86.12 127.88,83.48 C130.32,80.84 133.84,79.2 137.68,79.2 Z M144,100.56 C145.64,98.84 146.72,96.32 146.72,93.6 C146.72,90.88 145.64,88.36 144,86.6 C142.32,84.8 140.08,83.76 137.68,83.76 C135.12,83.76 132.88,84.8 131.2,86.6 C129.52,88.36 128.48,90.88 128.48,93.6 C128.48,96.32 129.52,98.84 131.2,100.56 C132.88,102.36 135.12,103.44 137.68,103.44 C140.08,103.44 142.32,102.36 144,100.56 Z" id="O-Copy" fill="#FB71F1"></path>
        </g>
    </g>
</svg>